<svg xmlns="http://www.w3.org/2000/svg" viewBox="0 0 3840 968"><defs><style>.cls-1{fill:#3498db;}</style></defs><g id="Layer_2" data-name="Layer 2"><g id="Layer_1-2" data-name="Layer 1"><g id="LOGO"><polygon id="V_Lower" class="cls-1" points="0 0 419 966 839 0 789 0 419 851 51 0 0 0"/><polygon id="V_Upper" class="cls-1" points="102 0 154 0 420 620 688 0 740 0 420 737 102 0"/><rect id="H_Left_Lower" class="cls-1" x="838.31" width="51.69" height="967"/><polygon id="H_Up_Upper" class="cls-1" points="940 0 991 0 991 407 1441 407 1441 0 1492 0 1492 458 940 458 940 0"/><polygon id="H_Down_Upper" class="cls-1" points="940 967 940 508 1492 508 1492 967 1441 967 1441 561 991 561 991 967 940 967"/><rect id="H_Right_Lower" class="cls-1" x="1542" width="51" height="967"/><polygon id="A_Upper" class="cls-1" points="1592 967 2012 0 2430 967 2380 967 2012 115 1642 967 1592 967"/><polygon id="A_Lower" class="cls-1" points="1693 968 2012 231 2329 968 2278 968 2012 348 1744 968 1693 968"/><polygon id="L_Lower" class="cls-1" points="2429 0 2429 967 3135 967 3115 916 2480 916 2480 21 2429 0"/><polygon id="L_Upper" class="cls-1" points="2530 41 2530 865 3095 865 3074 814 2581 814 2581 61 2530 41"/><polygon id="L_Lower-2" data-name="L_Lower" class="cls-1" points="3134 0 3134 967 3840 967 3820 916 3185 916 3185 21 3134 0"/><polygon id="L_Upper-2" data-name="L_Upper" class="cls-1" points="3235 41 3235 865 3800 865 3779 814 3286 814 3286 61 3235 41"/></g></g></g></svg>